<svg width="500" height="500" viewBox="0 0 150 40" fill="none" xmlns="http://www.w3.org/2000/svg">
<g clip-path="url(#clip0_3240_4206)">
<path d="M85.477 11.4836C85.477 15.526 82.9334 18.3731 79.451 18.3731C77.4925 18.3731 75.9185 17.4844 74.8766 15.9828V22.4406L71.7759 21.6048V4.92559H74.8766V7.00945C75.9185 5.51063 77.4953 4.61914 79.451 4.61914C82.9334 4.61914 85.477 7.46633 85.477 11.4836ZM82.4013 11.4836C82.4013 9.01808 80.8245 7.26296 78.6125 7.26296C76.4005 7.26296 74.9017 9.01808 74.9017 11.4836C74.9017 13.9491 76.4255 15.7293 78.6125 15.7293C80.7994 15.7293 82.4013 13.9491 82.4013 11.4836Z" fill="white"/>
<path d="M99.178 9.70306V18.0663H96.1776V10.3132C96.1776 8.53298 95.0325 7.26261 93.4056 7.26261C91.6505 7.26261 90.2018 8.53298 90.2018 10.1098V18.0663H87.1011V0.297852L90.2018 1.13362V6.7305C90.9902 5.46013 92.5419 4.62157 94.2943 4.62157C97.1665 4.62157 99.1752 6.7305 99.1752 9.70585L99.178 9.70306Z" fill="white"/>
<path d="M100.574 11.4836C100.574 7.74771 103.803 4.61914 107.616 4.61914C111.43 4.61914 114.659 7.74492 114.659 11.4836C114.659 15.2223 111.43 18.3731 107.616 18.3731C103.803 18.3731 100.574 15.2223 100.574 11.4836ZM111.606 11.4836C111.606 9.19638 109.776 7.26296 107.614 7.26296C105.452 7.26296 103.596 9.19359 103.596 11.4836C103.596 13.7736 105.427 15.7293 107.614 15.7293C109.801 15.7293 111.606 13.7987 111.606 11.4836Z" fill="white"/>
<path d="M123.853 4.61914V7.26296C121.031 7.26296 119.15 8.94008 119.15 11.4307V18.0667H116.049V4.92559H119.15V7.46912C119.989 5.714 121.694 4.62193 123.853 4.62193V4.61914Z" fill="white"/>
<path d="M136.997 4.9248V18.0687H133.896V16.3136C133.083 17.5338 131.559 18.3724 129.829 18.3724C126.956 18.3724 124.948 16.2634 124.948 13.2881V4.9248H127.948V12.678C127.948 14.4582 129.093 15.7285 130.72 15.7285C132.347 15.7285 133.695 14.6365 133.899 13.2379V4.9248H137H136.997Z" fill="white"/>
<path d="M138.56 16.3896L139.958 14.2277C141.228 15.1443 142.702 15.7544 144.357 15.7544C145.602 15.7544 146.466 15.2195 146.466 14.406C146.466 13.3892 145.321 13.0576 143.822 12.6509C140.975 11.9126 139.17 11.0992 139.145 8.76178C139.145 6.29625 141.178 4.61914 144.101 4.61914C145.906 4.61914 147.711 5.25433 149.135 6.19596L147.839 8.45812C146.594 7.66971 145.246 7.26296 144.104 7.26296C142.961 7.26296 142.173 7.69478 142.173 8.43304C142.173 9.2716 142.858 9.52512 144.867 10.1102C147.079 10.7203 149.469 11.4836 149.469 14.2277C149.469 16.7434 147.385 18.3704 144.31 18.3704C142.301 18.3704 140.139 17.6572 138.565 16.3868L138.56 16.3896Z" fill="white"/>
<path d="M90.536 22.1863V33.9317C90.536 37.3138 87.6888 39.7013 83.6715 39.7013C81.4093 39.7013 79.3255 38.963 78.0272 37.9462L79.1723 35.684C80.0888 36.5226 81.6629 37.0575 83.2146 37.0575C85.8083 37.0575 87.4352 35.8122 87.4352 33.8286V32.1264C86.3933 33.525 84.8165 34.3635 82.936 34.3635C79.5289 34.3635 77.0132 31.7698 77.0132 28.1092C77.0132 24.4485 79.5289 21.8799 82.936 21.8799C84.7914 21.8799 86.4936 22.7435 87.4352 24.142V22.1835H90.536V22.1863ZM87.4352 28.1092C87.4352 26.0253 85.9364 24.5237 83.8247 24.5237C81.713 24.5237 80.2393 26.0225 80.2393 28.1092C80.2393 30.1958 81.7381 31.7197 83.8247 31.7197C85.9114 31.7197 87.4352 30.2209 87.4352 28.1092Z" fill="white"/>
<path d="M100.484 21.8828V24.5266C97.6624 24.5266 95.7819 26.2037 95.7819 28.6943V35.3304H92.6812V22.1865H95.7819V24.73C96.6204 22.9749 98.3254 21.8828 100.484 21.8828Z" fill="white"/>
<path d="M100.574 28.7443C100.574 25.0085 103.803 21.8799 107.616 21.8799C111.43 21.8799 114.659 25.0057 114.659 28.7443C114.659 32.483 111.43 35.6339 107.616 35.6339C103.803 35.6339 100.574 32.4802 100.574 28.7443ZM111.606 28.7443C111.606 26.4571 109.776 24.5237 107.614 24.5237C105.452 24.5237 103.596 26.4543 103.596 28.7443C103.596 31.0344 105.427 32.9901 107.614 32.9901C109.801 32.9901 111.606 31.0594 111.606 28.7443Z" fill="white"/>
<path d="M128.051 22.1865V35.3304H124.95V33.5753C124.137 34.7955 122.613 35.6341 120.883 35.6341C118.011 35.6341 116.002 33.5252 116.002 30.5498V22.1865H119.002V29.9397C119.002 31.7199 120.147 32.9903 121.774 32.9903C123.401 32.9903 124.75 31.8982 124.953 30.4997V22.1865H128.054H128.051Z" fill="white"/>
<path d="M143.9 28.7443C143.9 32.7867 141.357 35.6339 137.874 35.6339C135.916 35.6339 134.342 34.7452 133.3 33.2436V39.7013L130.199 38.8655V22.1863H133.3V24.2702C134.342 22.7714 135.919 21.8799 137.874 21.8799C141.357 21.8799 143.9 24.7271 143.9 28.7443ZM140.825 28.7443C140.825 26.2788 139.248 24.5237 137.036 24.5237C134.824 24.5237 133.325 26.2788 133.325 28.7443C133.325 31.2099 134.849 32.9901 137.036 32.9901C139.223 32.9901 140.825 31.2099 140.825 28.7443Z" fill="white"/>
<path d="M0.273019 40C0.12258 40 0 39.8774 0 39.727V25.2459C0 25.0954 0.12258 24.9728 0.273019 24.9728H12.1354C12.5561 24.9728 12.9349 24.7193 13.0965 24.3321C13.2581 23.9448 13.169 23.4963 12.8737 23.201L0.0807912 10.3831C0.0306449 10.3329 0 10.2633 0 10.1908V0.273019C0 0.12258 0.12258 0 0.273019 0H15.2946C15.367 0 15.4367 0.027859 15.4868 0.0807912L29.0458 13.6398C29.096 13.6899 29.1266 13.7596 29.1266 13.832V25.2152C29.1266 25.3657 29.004 25.4854 28.8564 25.4882L15.8741 25.5189C15.3002 25.5189 14.8377 25.9841 14.8377 26.558V39.7298C14.8377 39.8802 14.7151 40.0028 14.5647 40.0028H0.273019V40Z" fill="white"/>
<path d="M31.7342 40C31.5837 40 31.4611 39.8774 31.4611 39.727V29.8064C31.4611 29.7339 31.489 29.6671 31.5391 29.6142L44.3292 16.7962C44.6245 16.4981 44.7137 16.0524 44.5521 15.6651C44.3905 15.2779 44.0116 15.0244 43.591 15.0244H31.7286C31.5781 15.0244 31.4556 14.9018 31.4556 14.7514V0.273019C31.4556 0.12258 31.5781 0 31.7286 0H46.0203C46.1707 0 46.2933 0.12258 46.2933 0.273019V13.4448C46.2933 14.0187 46.7557 14.4839 47.3296 14.4839L60.312 14.5146C60.4624 14.5146 60.5822 14.6371 60.5822 14.7876V26.1708C60.5822 26.2432 60.5543 26.3129 60.5014 26.363L46.9424 39.922C46.8923 39.9721 46.8226 40.0028 46.7502 40.0028H31.7286L31.7342 40Z" fill="white"/>
</g>
<defs>
<clipPath id="clip0_3240_4206">
<rect width="149.466" height="40" fill="white"/>
</clipPath>
</defs>
</svg>
